<?xml version="1.0" encoding="UTF-8" standalone="no"?>
<!-- Created with Inkscape (http://www.inkscape.org/) -->

<svg
   width="59.988167mm"
   height="59.916298mm"
   viewBox="0 0 59.988167 59.916298"
   version="1.1"
   id="svg5"
   xml:space="preserve"
   sodipodi:docname="dark.svg"
   inkscape:version="1.2.2 (b0a8486541, 2022-12-01)"
   xmlns:inkscape="http://www.inkscape.org/namespaces/inkscape"
   xmlns:sodipodi="http://sodipodi.sourceforge.net/DTD/sodipodi-0.dtd"
   xmlns="http://www.w3.org/2000/svg"
   xmlns:svg="http://www.w3.org/2000/svg"><sodipodi:namedview
     id="namedview7"
     pagecolor="#505050"
     bordercolor="#ffffff"
     borderopacity="1"
     inkscape:showpageshadow="0"
     inkscape:pageopacity="0"
     inkscape:pagecheckerboard="1"
     inkscape:deskcolor="#505050"
     inkscape:document-units="mm"
     showgrid="false"
     inkscape:zoom="1.3520427"
     inkscape:cx="104.28665"
     inkscape:cy="180.46767"
     inkscape:window-width="1920"
     inkscape:window-height="1011"
     inkscape:window-x="1920"
     inkscape:window-y="706"
     inkscape:window-maximized="1"
     inkscape:current-layer="layer1" /><defs
     id="defs2" /><g
     inkscape:label="dark"
     inkscape:groupmode="layer"
     id="layer1"
     transform="translate(-75.005916,-118.54185)"><path
       style="fill:#ffffff;stroke-width:0.175644"
       d="m 101.75905,168.28752 c -5.07124,-0.91863 -9.754783,-3.77654 -12.763768,-7.78853 -1.785515,-2.38068 -3.267111,-5.85834 -3.736582,-8.77066 -0.351344,-2.17955 -0.136488,-6.32342 0.434705,-8.38394 1.911442,-6.8953 7.414844,-12.38571 14.157869,-14.12444 1.621116,-0.41802 3.151446,-0.69971 3.151446,-0.5801 0,0.0329 -0.35761,0.68597 -0.79467,1.45115 -0.43707,0.76517 -1.04025,2.14211 -1.34038,3.05985 -0.46268,1.41475 -0.55889,2.0182 -0.63239,3.9663 -0.13983,3.70607 0.59633,6.43544 2.51246,9.31521 1.07273,1.61222 3.23107,3.72786 4.69739,4.60448 2.90741,1.73817 5.49827,2.39915 8.88348,2.26636 2.95585,-0.11593 5.01149,-0.69882 7.2714,-2.06184 0.63988,-0.38593 1.2082,-0.70168 1.26293,-0.70168 0.15632,0 -0.0737,1.34127 -0.54048,3.15145 -1.73827,6.74117 -7.20128,12.21946 -14.12445,14.16394 -1.44335,0.40539 -2.05606,0.47426 -4.64844,0.52256 -1.64228,0.0306 -3.34802,-0.01 -3.79052,-0.0901 z"
       id="path302"
       sodipodi:nodetypes="ssssssscsssssscsss" /></g></svg>
