<?xml version="1.0" encoding="UTF-8" standalone="no"?>
<!-- Created with Inkscape (http://www.inkscape.org/) -->

<svg
   width="76.693718mm"
   height="76.693703mm"
   viewBox="0 0 76.693718 76.693703"
   version="1.1"
   id="svg5"
   xml:space="preserve"
   xmlns:inkscape="http://www.inkscape.org/namespaces/inkscape"
   xmlns:sodipodi="http://sodipodi.sourceforge.net/DTD/sodipodi-0.dtd"
   xmlns="http://www.w3.org/2000/svg"
   xmlns:svg="http://www.w3.org/2000/svg"><sodipodi:namedview
     id="namedview7"
     pagecolor="#505050"
     bordercolor="#ffffff"
     borderopacity="1"
     inkscape:showpageshadow="0"
     inkscape:pageopacity="0"
     inkscape:pagecheckerboard="1"
     inkscape:deskcolor="#505050"
     inkscape:document-units="mm"
     showgrid="false" /><defs
     id="defs2" /><g
     inkscape:groupmode="layer"
     id="layer2"
     inkscape:label="light"
     style="display:inline"
     transform="translate(-66.653141,-110.15315)"><path
       d="m 103.85038,186.38072 c -0.36557,-0.40395 -0.43788,-1.12489 -0.43788,-4.36562 0,-3.529 0.0481,-3.92986 0.52917,-4.41094 0.29104,-0.29104 0.76729,-0.52917 1.05833,-0.52917 0.29104,0 0.76729,0.23813 1.05833,0.52917 0.48164,0.48164 0.52917,0.88194 0.52917,4.45691 0,3.46912 -0.0565,3.97887 -0.48386,4.36563 -0.63901,0.57829 -1.70804,0.55648 -2.25326,-0.046 z M 77.800832,175.69916 c -0.17462,-0.17462 -0.3175,-0.68277 -0.3175,-1.12921 0,-0.67739 0.4495,-1.25968 2.7165,-3.51895 2.24874,-2.24109 2.85467,-2.70726 3.51895,-2.70726 1.01908,0 1.43747,0.42109 1.43747,1.44671 0,0.67739 -0.44951,1.25968 -2.7165,3.51896 -2.24874,2.24109 -2.85467,2.70725 -3.51896,2.70725 -0.44135,0 -0.94533,-0.14287 -1.11996,-0.3175 z M 127.551,173.30017 c -2.24109,-2.24875 -2.70725,-2.85468 -2.70725,-3.51896 0,-1.01907 0.42108,-1.43747 1.4467,-1.43747 0.6774,0 1.25969,0.44951 3.51896,2.7165 2.24109,2.24874 2.70725,2.85467 2.70725,3.51896 0,1.01907 -0.42108,1.43746 -1.4467,1.43746 -0.6774,0 -1.25968,-0.4495 -3.51896,-2.71649 z m -26.64881,-8.29391 c -2.936268,-0.70983 -5.344108,-2.12303 -7.825918,-4.59319 -3.48202,-3.46564 -5.00179,-7.08537 -5.00179,-11.91307 0,-4.80369 1.51658,-8.41137 5.01244,-11.92373 3.46565,-3.48202 7.085368,-5.00178 11.913078,-5.00178 4.80369,0 8.41136,1.51657 11.92373,5.01243 3.48201,3.46565 5.00178,7.08538 5.00178,11.91308 0,4.80369 -1.51658,8.41136 -5.01243,11.92373 -2.50597,2.51779 -4.83882,3.86789 -7.94433,4.59765 -2.13066,0.50068 -5.96261,0.49349 -8.06656,-0.0151 z M 67.073302,149.60365 c -0.5783,-0.63902 -0.55649,-1.70805 0.046,-2.25327 0.40395,-0.36557 1.12489,-0.43788 4.36562,-0.43788 3.52899,0 3.92986,0.0481 4.41094,0.52917 0.29104,0.29104 0.52917,0.76729 0.52917,1.05833 0,0.29104 -0.23813,0.76729 -0.52917,1.05833 -0.48164,0.48164 -0.88195,0.52917 -4.45691,0.52917 -3.46912,0 -3.97887,-0.0565 -4.36563,-0.48385 z m 67.030858,-0.0453 c -0.29104,-0.29104 -0.52916,-0.76729 -0.52916,-1.05833 0,-0.29104 0.23812,-0.76729 0.52916,-1.05833 0.48164,-0.48164 0.88195,-0.52917 4.45691,-0.52917 3.46912,0 3.97888,0.0565 4.36563,0.48385 0.5783,0.63902 0.55648,1.70805 -0.046,2.25327 -0.40395,0.36557 -1.12489,0.43788 -4.36563,0.43788 -3.52899,0 -3.92986,-0.0481 -4.41094,-0.52917 z M 80.190582,125.93977 c -2.24109,-2.24874 -2.70725,-2.85467 -2.70725,-3.51895 0,-1.01908 0.42108,-1.43747 1.44671,-1.43747 0.67739,0 1.25968,0.44951 3.51896,2.7165 2.24108,2.24874 2.70725,2.85467 2.70725,3.51896 0,1.01907 -0.42108,1.43746 -1.44671,1.43746 -0.67739,0 -1.25968,-0.4495 -3.51896,-2.7165 z m 44.970668,2.399 c -0.17463,-0.17462 -0.3175,-0.68277 -0.3175,-1.12921 0,-0.67739 0.4495,-1.25968 2.71649,-3.51896 2.24874,-2.24108 2.85468,-2.70725 3.51896,-2.70725 1.01907,0 1.43746,0.42109 1.43746,1.44671 0,0.67739 -0.4495,1.25968 -2.71649,3.51896 -2.24874,2.24109 -2.85468,2.70725 -3.51896,2.70725 -0.44135,0 -0.94534,-0.14287 -1.11996,-0.3175 z m -21.21958,-8.94292 c -0.48164,-0.48164 -0.52917,-0.88194 -0.52917,-4.45691 0,-3.46911 0.0565,-3.97887 0.48385,-4.36562 0.63902,-0.57831 1.70805,-0.5565 2.25327,0.046 0.36557,0.40395 0.43788,1.12489 0.43788,4.36562 0,3.529 -0.0481,3.92987 -0.52917,4.41094 -0.29104,0.29104 -0.76729,0.52917 -1.05833,0.52917 -0.29104,0 -0.76729,-0.23813 -1.05833,-0.52917 z"
       style="fill:#000000;stroke-width:0.264583"
       id="path359" /></g></svg>
